<svg width="22" height="22" viewBox="0 0 22 22" fill="none" xmlns="http://www.w3.org/2000/svg">
<path d="M0 17.6V19.0667H0.6875H3.4375V20.5333V22H4.8125H8.9375H10.3125V20.5333V19.0667H21.3125H22V17.6H21.3125H10.3125V16.1333V14.6667H8.9375H4.8125H3.4375V16.1333V17.6H0.6875H0ZM8.9375 19.0667V20.5333H4.8125V19.0667V17.6V16.1333H8.9375V17.6V19.0667ZM0 10.2667V11.7333H0.6875H11.6875V13.2V14.6667H13.0625H17.1875H18.5625V13.2V11.7333H21.3125H22V10.2667H21.3125H18.5625V8.8V7.33333H17.1875H13.0625H11.6875V8.8V10.2667H0.6875H0ZM4.8125 4.4V5.86667V7.33333H6.1875H10.3125H11.6875V5.86667V4.4H21.3125H22V2.93333H21.3125H11.6875V1.46667V0H10.3125H6.1875H4.8125V1.46667V2.93333H0.6875H0V4.4H0.6875H4.8125ZM6.1875 4.4V2.93333V1.46667H10.3125V2.93333V4.4V5.86667H6.1875V4.4ZM17.1875 10.2667V11.7333V13.2H13.0625V11.7333V10.2667V8.8H17.1875V10.2667Z" fill="#000"/>
</svg>
